<svg xmlns="http://www.w3.org/2000/svg" width="16" height="16">
  <g style="line-height:125%;-inkscape-font-specification:'Tahoma, Normal';font-variant-ligatures:normal;font-variant-caps:normal;font-variant-numeric:normal;font-feature-settings:normal;text-align:start">
    <path d="M12.156 3.326q.775.775 1.211 1.861.443 1.08.443 2.422 0 .968-.277 1.971-.277.996-.692 1.654h-3.5l-.11-.54q-.395.263-.762.422-.366.152-1.058.152-1.128 0-1.827-.927-.698-.934-.698-2.511 0-.844.235-1.474.235-.636.643-1.106.38-.443.92-.692.54-.25 1.073-.25.456 0 .809.174.353.166.547.353v-.43h1.604v5.646h1.177q.249-.547.366-1.183.125-.644.125-1.232 0-1.169-.325-2.047-.326-.886-.9-1.467-.588-.595-1.376-.886-.79-.29-1.71-.29-.878 0-1.673.346-.789.346-1.39.934-.616.602-1.004 1.508-.38.906-.38 1.985 0 1.176.36 2.083.366.906.968 1.508.602.595 1.397.906.796.311 1.681.311.588 0 1.335-.11.755-.104 1.336-.277v1.342q-.644.145-1.28.221-.637.076-1.39.076-1.267 0-2.346-.435-1.072-.436-1.86-1.239-.782-.795-1.225-1.923-.436-1.128-.436-2.463 0-1.286.457-2.38.456-1.1 1.259-1.916.781-.802 1.867-1.266 1.093-.463 2.318-.463 1.217 0 2.269.429 1.058.429 1.82 1.203zM9.078 9.4V5.914q-.284-.146-.526-.208-.242-.069-.546-.069-.664 0-1.024.581t-.36 1.591q0 1.093.298 1.619.297.526.982.526.36 0 .63-.139.27-.145.546-.415z" style="-inkscape-font-specification:Verdana" font-weight="700" font-family="Verdana" aria-label="@" font-size="14.168" letter-spacing="0" word-spacing="0" stroke-width=".664"/>
  </g>
</svg>
