<?xml version="1.0" encoding="UTF-8" standalone="no"?>
<svg
   xmlns:dc="http://purl.org/dc/elements/1.1/"
   xmlns:cc="http://creativecommons.org/ns#"
   xmlns:rdf="http://www.w3.org/1999/02/22-rdf-syntax-ns#"
   xmlns:svg="http://www.w3.org/2000/svg"
   xmlns="http://www.w3.org/2000/svg"
   id="svg10"
   viewBox="0 0 32 32"
   x="0px"
   y="0px"
   enable-background="new 0 0 595.275 311.111"
   width="32"
   height="32"
   xml:space="preserve"
   version="1.1"><metadata
     id="metadata16"><rdf:RDF><cc:Work
         rdf:about=""><dc:format>image/svg+xml</dc:format><dc:type
           rdf:resource="http://purl.org/dc/dcmitype/StillImage" /><dc:title></dc:title></cc:Work></rdf:RDF></metadata><defs
     id="defs14" /><path
     id="rect2"
     d="M 5 0 C 2.23 0 0 2.23 0 5 L 0 27 C 0 29.77 2.23 32 5 32 L 27 32 C 29.77 32 32 29.77 32 27 L 32 5 C 32 2.23 29.77 0 27 0 L 5 0 z M 3 3 L 10 3 L 10 28 L 3 28 L 3 3 z M 21 8 L 28 8 L 28 28 L 21 28 L 21 8 z M 12 13 L 19 13 L 19 28 L 12 28 L 12 13 z " /></svg>