<?xml version="1.0" encoding="UTF-8" standalone="no"?>
<svg
   xmlns:dc="http://purl.org/dc/elements/1.1/"
   xmlns:cc="http://creativecommons.org/ns#"
   xmlns:rdf="http://www.w3.org/1999/02/22-rdf-syntax-ns#"
   xmlns:svg="http://www.w3.org/2000/svg"
   xmlns="http://www.w3.org/2000/svg"
   xmlns:sodipodi="http://sodipodi.sourceforge.net/DTD/sodipodi-0.dtd"
   xmlns:inkscape="http://www.inkscape.org/namespaces/inkscape"
   id="svg10"
   viewBox="0 0 32 32"
   x="0px"
   y="0px"
   enable-background="new 0 0 595.275 311.111"
   width="32"
   height="32"
   xml:space="preserve"
   version="1.1"
   sodipodi:docname="favicon-mask.svg"
   inkscape:version="0.92.3 (2405546, 2018-03-11)"><sodipodi:namedview
     pagecolor="#ffffff"
     bordercolor="#666666"
     borderopacity="1"
     objecttolerance="10"
     gridtolerance="10"
     guidetolerance="10"
     inkscape:pageopacity="0"
     inkscape:pageshadow="2"
     inkscape:window-width="1920"
     inkscape:window-height="1046"
     id="namedview15"
     showgrid="false"
     inkscape:zoom="3.6875"
     inkscape:cx="11.825118"
     inkscape:cy="3.2468217"
     inkscape:window-x="0"
     inkscape:window-y="34"
     inkscape:window-maximized="1"
     inkscape:current-layer="svg10" /><metadata
     id="metadata16"><rdf:RDF><cc:Work
         rdf:about=""><dc:format>image/svg+xml</dc:format><dc:type
           rdf:resource="http://purl.org/dc/dcmitype/StillImage" /><dc:title /></cc:Work></rdf:RDF></metadata><defs
     id="defs14" /><path
     d="M 5 0 C 2.23 0 0 2.23 0 5 L 0 27 C 0 29.77 2.23 32 5 32 L 27 32 C 29.77 32 32 29.77 32 27 L 32 5 C 32 2.23 29.77 0 27 0 L 5 0 z M 5 3 A 3 3 0 0 1 8 6 A 3 3 0 0 1 5 9 A 3 3 0 0 1 2 6 A 3 3 0 0 1 5 3 z M 12 4 L 28 4 C 28.554 4 29 4.446 29 5 L 29 7 C 29 7.554 28.554 8 28 8 L 12 8 C 11.446 8 11 7.554 11 7 L 11 5 C 11 4.446 11.446 4 12 4 z M 5 13 A 3 3 0 0 1 8 16 A 3 3 0 0 1 5 19 A 3 3 0 0 1 2 16 A 3 3 0 0 1 5 13 z M 12 14 L 28 14 C 28.554 14 29 14.446 29 15 L 29 17 C 29 17.554 28.554 18 28 18 L 12 18 C 11.446 18 11 17.554 11 17 L 11 15 C 11 14.446 11.446 14 12 14 z M 5 23 A 3 3 0 0 1 8 26 A 3 3 0 0 1 5 29 A 3 3 0 0 1 2 26 A 3 3 0 0 1 5 23 z M 12 24 L 28 24 C 28.554 24 29 24.446 29 25 L 29 27 C 29 27.554 28.554 28 28 28 L 12 28 C 11.446 28 11 27.554 11 27 L 11 25 C 11 24.446 11.446 24 12 24 z "
     id="rect2" /></svg>