<svg width="128" height="128" enable-background="new 0 0 595.275 311.111" version="1.1" viewBox="0 0 128 128" xml:space="preserve" xmlns="http://www.w3.org/2000/svg"><rect width="128" height="128" rx="20" ry="20" fill="#0082c9"/><path d="m20 12a12 12 0 0 0-12 12 12 12 0 0 0 12 12 12 12 0 0 0 12-12 12 12 0 0 0-12-12zm28 4c-2.216 0-4 1.784-4 4v8c0 2.216 1.784 4 4 4h64c2.216 0 4-1.784 4-4v-8c0-2.216-1.784-4-4-4zm-28 36a12 12 0 0 0-12 12 12 12 0 0 0 12 12 12 12 0 0 0 12-12 12 12 0 0 0-12-12zm28 4c-2.216 0-4 1.784-4 4v8c0 2.216 1.784 4 4 4h64c2.216 0 4-1.784 4-4v-8c0-2.216-1.784-4-4-4zm-28 36a12 12 0 0 0-12 12 12 12 0 0 0 12 12 12 12 0 0 0 12-12 12 12 0 0 0-12-12zm28 4c-2.216 0-4 1.784-4 4v8c0 2.216 1.784 4 4 4h64c2.216 0 4-1.784 4-4v-8c0-2.216-1.784-4-4-4z" fill="#fff" style="paint-order:markers fill stroke"/></svg>
