<svg viewBox="0 0 16 16" height="16" width="16" xmlns="http://www.w3.org/2000/svg" xml:space="preserve" style="fill-rule:evenodd;clip-rule:evenodd;stroke-linejoin:round;stroke-miterlimit:2"><path d="M2.5 0h11C14.885 0 16 1.115 16 2.5v11c0 1.385-1.115 2.5-2.5 2.5h-11A2.495 2.495 0 0 1 0 13.5v-11C0 1.115 1.115 0 2.5 0Zm.405 9.422a1.39 1.39 0 0 0 1.02-.424 1.39 1.39 0 0 0 .424-1.02 1.39 1.39 0 0 0-.424-1.02 1.391 1.391 0 0 0-1.02-.425c-.397 0-.737.142-1.02.425a1.391 1.391 0 0 0-.425 1.02c0 .397.142.737.425 1.02a1.39 1.39 0 0 0 1.02.424Zm2.889-5.055h8.666V2.922H5.794v1.445Zm0 4.333h8.666V7.256H5.794V8.7Zm0 4.333h8.666v-1.444H5.794v1.444Zm-2.889.723c.397 0 .737-.142 1.02-.425a1.39 1.39 0 0 0 .424-1.02 1.39 1.39 0 0 0-.424-1.02 1.39 1.39 0 0 0-1.02-.424 1.39 1.39 0 0 0-1.02.424 1.391 1.391 0 0 0-.425 1.02c0 .397.142.737.425 1.02.283.283.623.425 1.02.425Zm0-8.667c.397 0 .737-.142 1.02-.424.283-.283.424-.623.424-1.021a1.39 1.39 0 0 0-.424-1.02 1.39 1.39 0 0 0-1.02-.424 1.39 1.39 0 0 0-1.02.424 1.391 1.391 0 0 0-.425 1.02c0 .398.142.738.425 1.021.283.282.623.424 1.02.424Z"/></svg>