<svg width="32" height="32" version="1.1" xmlns="http://www.w3.org/2000/svg"><path d="m5.9492 3a3 3 0 0 0-2.9492 3 3 3 0 0 0 3 3 3 3 0 0 0 3-3 3 3 0 0 0-3-3 3 3 0 0 0-0.050781 0zm6.0508 1c-0.554 0-1 0.446-1 1v2c0 0.554 0.446 1 1 1h16c0.554 0 1-0.446 1-1v-2c0-0.554-0.446-1-1-1h-16zm-6.0508 9a3 3 0 0 0-2.9492 3 3 3 0 0 0 3 3 3 3 0 0 0 3-3 3 3 0 0 0-3-3 3 3 0 0 0-0.050781 0zm6.0508 1c-0.554 0-1 0.446-1 1v2c0 0.554 0.446 1 1 1h16c0.554 0 1-0.446 1-1v-2c0-0.554-0.446-1-1-1h-16zm-6.0508 9a3 3 0 0 0-2.9492 3 3 3 0 0 0 3 3 3 3 0 0 0 3-3 3 3 0 0 0-3-3 3 3 0 0 0-0.050781 0zm6.0508 1c-0.554 0-1 0.446-1 1v2c0 0.554 0.446 1 1 1h16c0.554 0 1-0.446 1-1v-2c0-0.554-0.446-1-1-1h-16z" fill="#fff"/></svg>
