<svg xmlns="http://www.w3.org/2000/svg" height="16" width="16">
  <path
     d="M 8.7452395,9.7187502 H 6.3215333 V 9.3897706 q 0,-0.550537 0.2215576,-0.9735107 Q 6.7646485,7.9865723 7.4763185,7.3286134 L 7.906006,6.9392091 Q 8.2886965,6.590088 8.463257,6.2812501 8.6445313,5.9724122 8.6445313,5.6635743 q 0,-0.4699707 -0.3222655,-0.7318115 -0.3222656,-0.2685547 -0.8996583,-0.2685547 -0.5438232,0 -1.1749267,0.2282715 -0.6311036,0.2215576 -1.315918,0.6646728 V 3.4479981 Q 5.7441407,3.1660157 6.4155274,3.0317384 7.0869142,2.897461 7.7113038,2.897461 q 1.6381837,0 2.4975582,0.6713867 0.859375,0.6646729 0.859375,1.9470215 0,0.657959 -0.261841,1.1816406 -0.26184,0.5169678 -0.8929438,1.114502 L 9.4837647,8.1947022 Q 9.0272218,8.6109621 8.8862307,8.866089 8.7452395,9.114502 8.7452395,9.4166261 Z M 6.3215333,10.712403 h 2.4237062 v 2.390136 H 6.3215333 Z"
     style="font-style:normal;font-variant:normal;font-weight:bold;font-stretch:normal;font-size:13.75px;font-family:sans-serif;-inkscape-font-specification:'sans-serif Bold';fill:#ffc107;fill-opacity:1" />
  <rect
     style="fill:none;fill-opacity:1;stroke:#ffc107;stroke-width:1;stroke-miterlimit:4;stroke-dasharray:none;stroke-opacity:1"
     width="15.000062"
     height="15.000061"
     x="0.49996963"
     y="0.49996981"
     ry="2.0592685" />
</svg>
