<?xml version="1.0" encoding="UTF-8" standalone="no"?>
<svg
   xmlns:dc="http://purl.org/dc/elements/1.1/"
   xmlns:cc="http://creativecommons.org/ns#"
   xmlns:rdf="http://www.w3.org/1999/02/22-rdf-syntax-ns#"
   xmlns:svg="http://www.w3.org/2000/svg"
   xmlns="http://www.w3.org/2000/svg"
   id="svg4"
   version="1.1"
   width="16"
   height="16">
  <metadata
     id="metadata10">
    <rdf:RDF>
      <cc:Work
         rdf:about="">
        <dc:format>image/svg+xml</dc:format>
        <dc:type
           rdf:resource="http://purl.org/dc/dcmitype/StillImage" />
        <dc:title></dc:title>
      </cc:Work>
    </rdf:RDF>
  </metadata>
  <defs
     id="defs8" />
  <path
     id="path2"
     style="font-style:normal;font-variant:normal;font-weight:bold;font-stretch:normal;font-size:13.75px;font-family:sans-serif;-inkscape-font-specification:'sans-serif Bold';fill:#ffc107;fill-opacity:1;stroke-width:1.33733869"
     d="M 8.971553,10.357894 H 5.8118163 V 9.9065792 q 0,-0.7552632 0.2888402,-1.3355264 Q 6.3894968,7.9815791 7.3172868,7.0789476 L 7.8774618,6.544737 q 0.498906,-0.4789474 0.726477,-0.9026315 0.2363235,-0.4236843 0.2363235,-0.8473684 0,-0.644737 -0.4201309,-1.0039475 -0.4201313,-0.3684211 -1.1728666,-0.3684211 -0.7089715,0 -1.5317287,0.3131579 Q 4.8927789,4.0394738 4,4.6473685 V 1.7552632 Q 5.059081,1.3684211 5.9343545,1.1842107 6.8096281,1 7.6236325,1 9.7593,1 10.879649,1.9210527 12,2.8328948 12,4.5921054 12,5.4947371 11.658643,6.213158 11.317287,6.9223685 10.494529,7.7421055 L 9.934355,8.2671054 Q 9.339168,8.8381581 9.155361,9.188158 8.971553,9.5289475 8.971553,9.9434213 Z m -3.1597367,1.36316 H 8.971553 V 15 H 5.8118163 Z" />
</svg>
